<svg id="Group_76" data-name="Group 76" xmlns="http://www.w3.org/2000/svg" xmlns:xlink="http://www.w3.org/1999/xlink" width="654.141" height="393.466" viewBox="0 0 654.141 393.466">
  <defs>
    <linearGradient id="linear-gradient" x1="-84.316" y1="-17.648" x2="-83.385" y2="-17.648" gradientUnits="objectBoundingBox">
      <stop offset="0" stop-color="#b68c2e"/>
      <stop offset="0.489" stop-color="#faf075"/>
      <stop offset="1" stop-color="#b68c2e"/>
    </linearGradient>
    <linearGradient id="linear-gradient-2" x1="-4.411" y1="12.07" x2="-3.481" y2="12.07" xlink:href="#linear-gradient"/>
    <linearGradient id="linear-gradient-3" x1="0" y1="0.5" x2="1" y2="0.5" xlink:href="#linear-gradient"/>
    <linearGradient id="linear-gradient-4" x1="-97.114" y1="14.249" x2="-96.114" y2="14.249" xlink:href="#linear-gradient"/>
    <linearGradient id="linear-gradient-5" x1="-110.279" y1="14.249" x2="-109.279" y2="14.249" xlink:href="#linear-gradient"/>
    <linearGradient id="linear-gradient-6" x1="0" y1="0.5" x2="1" y2="0.5" xlink:href="#linear-gradient"/>
    <linearGradient id="linear-gradient-7" x1="-37.245" y1="46.795" x2="-36.454" y2="46.795" xlink:href="#linear-gradient"/>
    <linearGradient id="linear-gradient-8" x1="-26.408" y1="-37.6" x2="-25.617" y2="-37.6" xlink:href="#linear-gradient"/>
    <linearGradient id="linear-gradient-9" x1="0" y1="0.5" x2="1.001" y2="0.5" xlink:href="#linear-gradient"/>
    <linearGradient id="linear-gradient-10" x1="0" y1="0.5" x2="1" y2="0.5" xlink:href="#linear-gradient"/>
    <linearGradient id="linear-gradient-11" x1="0" y1="0.5" x2="1" y2="0.5" xlink:href="#linear-gradient"/>
    <linearGradient id="linear-gradient-12" x1="0" y1="0.5" x2="1" y2="0.5" xlink:href="#linear-gradient"/>
    <linearGradient id="linear-gradient-14" x1="0" y1="0.5" x2="1" y2="0.5" xlink:href="#linear-gradient"/>
    <linearGradient id="linear-gradient-15" x1="-23.305" y1="-35.93" x2="-22.442" y2="-35.93" xlink:href="#linear-gradient"/>
    <linearGradient id="linear-gradient-16" x1="-56.039" y1="20.261" x2="-55.177" y2="20.261" xlink:href="#linear-gradient"/>
    <linearGradient id="linear-gradient-17" x1="-40.534" y1="-72.812" x2="-40.098" y2="-72.812" xlink:href="#linear-gradient"/>
    <linearGradient id="linear-gradient-18" x1="-87.053" y1="98.635" x2="-86.617" y2="98.635" xlink:href="#linear-gradient"/>
    <linearGradient id="linear-gradient-20" x1="-216.402" y1="0.5" x2="-215.402" y2="0.5" xlink:href="#linear-gradient"/>
    <linearGradient id="linear-gradient-21" x1="-20.697" y1="34.58" x2="-20.005" y2="34.58" xlink:href="#linear-gradient"/>
    <linearGradient id="linear-gradient-22" x1="-5.394" y1="-31.725" x2="-4.703" y2="-31.725" xlink:href="#linear-gradient"/>
    <linearGradient id="linear-gradient-24" x1="-79.821" y1="0.5" x2="-78.821" y2="0.5" xlink:href="#linear-gradient"/>
    <linearGradient id="linear-gradient-25" x1="0" y1="0.5" x2="1" y2="0.5" xlink:href="#linear-gradient"/>
    <linearGradient id="linear-gradient-26" x1="0" y1="0.5" x2="1.001" y2="0.5" xlink:href="#linear-gradient"/>
    <linearGradient id="linear-gradient-27" x1="-65.728" y1="0.5" x2="-64.728" y2="0.5" xlink:href="#linear-gradient"/>
    <linearGradient id="linear-gradient-28" x1="-222.747" y1="0.5" x2="-221.746" y2="0.5" xlink:href="#linear-gradient"/>
    <linearGradient id="linear-gradient-29" x1="-19.83" y1="32.701" x2="-18.902" y2="32.701" xlink:href="#linear-gradient"/>
    <linearGradient id="linear-gradient-30" x1="-141.599" y1="-12.405" x2="-140.669" y2="-12.405" xlink:href="#linear-gradient"/>
    <linearGradient id="linear-gradient-31" x1="-101.571" y1="37.955" x2="-100.571" y2="37.955" xlink:href="#linear-gradient"/>
    <linearGradient id="linear-gradient-32" x1="-14.187" y1="-41.976" x2="-13.187" y2="-41.976" xlink:href="#linear-gradient"/>
    <linearGradient id="linear-gradient-33" x1="-14.187" y1="-41.976" x2="-13.187" y2="-41.976" xlink:href="#linear-gradient"/>
    <linearGradient id="linear-gradient-34" x1="-222.782" y1="19.451" x2="-221.782" y2="19.451" xlink:href="#linear-gradient"/>
    <linearGradient id="linear-gradient-35" x1="-63.726" y1="-73.566" x2="-62.935" y2="-73.566" xlink:href="#linear-gradient"/>
    <linearGradient id="linear-gradient-36" x1="-80.674" y1="54.401" x2="-79.884" y2="54.401" xlink:href="#linear-gradient"/>
    <linearGradient id="linear-gradient-37" x1="-343.078" y1="15.374" x2="-342.078" y2="15.374" xlink:href="#linear-gradient"/>
    <linearGradient id="linear-gradient-38" x1="-329.994" y1="15.374" x2="-328.994" y2="15.374" xlink:href="#linear-gradient"/>
    <linearGradient id="linear-gradient-39" x1="-216.747" y1="22.874" x2="-215.747" y2="22.874" xlink:href="#linear-gradient"/>
    <linearGradient id="linear-gradient-40" x1="-209.6" y1="22.874" x2="-208.6" y2="22.874" xlink:href="#linear-gradient"/>
    <linearGradient id="linear-gradient-41" x1="-55.12" y1="6.442" x2="-54.12" y2="6.442" xlink:href="#linear-gradient"/>
    <linearGradient id="linear-gradient-42" x1="-52.647" y1="6.417" x2="-51.647" y2="6.417" xlink:href="#linear-gradient"/>
    <linearGradient id="linear-gradient-43" x1="-79.805" y1="51.491" x2="-78.941" y2="51.491" xlink:href="#linear-gradient"/>
    <linearGradient id="linear-gradient-44" x1="-10.24" y1="-57.673" x2="-9.377" y2="-57.673" xlink:href="#linear-gradient"/>
    <linearGradient id="linear-gradient-45" x1="-97.577" y1="126.149" x2="-97.141" y2="126.149" xlink:href="#linear-gradient"/>
    <linearGradient id="linear-gradient-46" x1="-41.285" y1="-89.648" x2="-40.851" y2="-89.648" xlink:href="#linear-gradient"/>
    <linearGradient id="linear-gradient-47" x1="-337.782" y1="16.579" x2="-336.782" y2="16.579" xlink:href="#linear-gradient"/>
    <linearGradient id="linear-gradient-48" x1="-2.142" y1="16.579" x2="-1.141" y2="16.579" xlink:href="#linear-gradient"/>
    <linearGradient id="linear-gradient-49" x1="-4.839" y1="-30.756" x2="-4.148" y2="-30.756" xlink:href="#linear-gradient"/>
    <linearGradient id="linear-gradient-50" x1="-26.14" y1="59.427" x2="-25.449" y2="59.427" xlink:href="#linear-gradient"/>
    <linearGradient id="linear-gradient-51" x1="-119.601" y1="35.413" x2="-118.601" y2="35.413" xlink:href="#linear-gradient"/>
    <linearGradient id="linear-gradient-52" x1="-4.909" y1="35.413" x2="-3.908" y2="35.413" xlink:href="#linear-gradient"/>
    <linearGradient id="linear-gradient-53" x1="-88.796" y1="19.949" x2="-87.796" y2="19.949" xlink:href="#linear-gradient"/>
    <linearGradient id="linear-gradient-54" x1="-301.235" y1="21.404" x2="-300.236" y2="21.404" xlink:href="#linear-gradient"/>
    <linearGradient id="linear-gradient-55" x1="-11.519" y1="19.949" x2="-10.519" y2="19.949" xlink:href="#linear-gradient"/>
    <linearGradient id="linear-gradient-56" x1="-39.181" y1="21.404" x2="-38.181" y2="21.404" xlink:href="#linear-gradient"/>
    <linearGradient id="linear-gradient-57" x1="0.5" y1="0" x2="0.5" y2="1" xlink:href="#linear-gradient"/>
    <linearGradient id="linear-gradient-60" x1="-2.82" y1="-1254.333" x2="-1.82" y2="-1254.333" xlink:href="#linear-gradient"/>
  </defs>
  <g id="Group_72" data-name="Group 72" transform="translate(0 0)">
    <g id="Group_49" data-name="Group 49" transform="translate(64.879)">
      <g id="Group_30" data-name="Group 30" transform="translate(213.564 99.74)">
        <path id="Path_128" data-name="Path 128" d="M25.866,62.174s-1.719-1.687-4.392-4.71c-.923-1.846-2.705-3.469-3.564-6.174a17.874,17.874,0,0,1-1.464-4.01c-.35-1.4-.637-2.928-1.05-4.551,0-1.559-.127-3.278-.032-5.06.191-1.719.477-3.437.732-5.283.7-1.75,1.337-3.564,1.973-5.219,1.114-1.5,2.037-3.564,3.055-4.805l2.164-2.451c.764-.636,1.4-.987,2.132-1.559A11.422,11.422,0,0,1,27.9,17.079,6.674,6.674,0,0,1,30.64,16a16.963,16.963,0,0,1,11.489.414c3.723,1.337,7,4.01,8.243,7.224a12.456,12.456,0,0,1-.159,10.438,8.857,8.857,0,0,1-7.479,5.378,10.54,10.54,0,0,1-4.455-1.05l-.477-.223c.1.191-.286-.255-.382-.318a6.94,6.94,0,0,1-.955-.8A5.636,5.636,0,0,1,35.381,35.6,6.207,6.207,0,0,1,36.5,28.567a4.768,4.768,0,0,1,5.442-.7c1.941,1.209,1.878,2.482,2,3.692L43.5,33.086a12.5,12.5,0,0,1,.8-1.5c-.032-.573.318-1.3,0-2.1a4.408,4.408,0,0,0-1.337-2.482c-1.209-.637-2.164-1.559-3.6-1.5-1.368-.318-3.437.509-4.551,1.3C32.2,28.535,30.449,32.863,31.944,37a7.626,7.626,0,0,0,1.719,3.055c.446.414.668.668,1.018,1.05.286.127.127.191.732.573l.732.477a12.653,12.653,0,0,0,6.619,2.1,15.3,15.3,0,0,0,7.161-1.782A12.994,12.994,0,0,0,53.044,39.9a7.075,7.075,0,0,0,1.241-1.528l.955-1.687a17.637,17.637,0,0,0,.987-15.5A19.375,19.375,0,0,0,44.42,10.427a23.644,23.644,0,0,0-15.594-.509,16.059,16.059,0,0,0-3.6,1.5,16.308,16.308,0,0,0-3.373,2.069c-1.082.987-2.228,1.782-3.055,2.578l-2.1,2.61A40.484,40.484,0,0,0,13.263,25a59.922,59.922,0,0,0-1.846,6.365c-.191,2.1-.35,4.233-.446,6.269.286,1.909.509,3.978.8,5.76.573,1.814,1.114,3.5,1.623,5,.668,1.559,1.719,2.9,2.355,4.2,1.337,2.482,3.6,4.264,4.806,5.76,1.591,1.337,2.992,2.2,3.883,2.928C25.357,61.824,25.866,62.174,25.866,62.174Z" transform="translate(-10.972 -8.84)" fill="url(#linear-gradient)"/>
        <path id="Path_129" data-name="Path 129" d="M44.224,62.174s1.719-1.687,4.392-4.71c.955-1.846,2.673-3.469,3.564-6.174a17.875,17.875,0,0,0,1.464-4.01c.35-1.4.636-2.928,1.05-4.551,0-1.559.1-3.278.032-5.06-.191-1.719-.477-3.437-.732-5.283-.7-1.75-1.3-3.564-1.973-5.219-1.114-1.5-2.037-3.564-3.087-4.805L46.77,19.911c-.732-.636-1.368-.987-2.1-1.559a12.193,12.193,0,0,0-2.482-1.273A6.673,6.673,0,0,0,39.45,16a16.977,16.977,0,0,0-11.489.414c-3.755,1.337-7,4.01-8.243,7.224a12.574,12.574,0,0,0,.159,10.438,8.9,8.9,0,0,0,7.511,5.378,10.4,10.4,0,0,0,4.424-1.05l.446-.223c-.064.191.318-.255.446-.318a9.636,9.636,0,0,0,.955-.8A6.463,6.463,0,0,0,34.74,35.6a6.322,6.322,0,0,0-1.146-7.033,4.759,4.759,0,0,0-5.442-.7,3.952,3.952,0,0,0-2.037,3.692c.35,1.05.477,1.528.477,1.528a12.512,12.512,0,0,0-.8-1.5c.064-.573-.318-1.3-.032-2.1a4.644,4.644,0,0,1,1.368-2.482c1.209-.637,2.132-1.559,3.564-1.5a6.75,6.75,0,0,1,4.583,1.3c2.61,1.719,4.36,6.047,2.832,10.184a7.172,7.172,0,0,1-1.687,3.055l-1.05,1.05c-.255.127-.1.191-.7.573l-.732.477a12.561,12.561,0,0,1-6.62,2.1,15.2,15.2,0,0,1-7.16-1.782A13.247,13.247,0,0,1,17.014,39.9,8.349,8.349,0,0,1,15.8,38.369l-.955-1.687a17.536,17.536,0,0,1-1.018-15.5A19.594,19.594,0,0,1,25.67,10.427,23.738,23.738,0,0,1,41.3,9.918a16.432,16.432,0,0,1,3.564,1.5A14.6,14.6,0,0,1,48.2,13.482c1.114.987,2.228,1.782,3.055,2.578l2.132,2.61A38,38,0,0,1,56.826,25c.859,2.1,1.209,4.265,1.846,6.365.159,2.1.35,4.233.446,6.269-.286,1.909-.509,3.978-.764,5.76-.573,1.814-1.146,3.5-1.687,5-.636,1.559-1.687,2.9-2.355,4.2-1.3,2.482-3.6,4.264-4.774,5.76-1.623,1.337-2.991,2.2-3.851,2.928C44.733,61.824,44.224,62.174,44.224,62.174Z" transform="translate(35.624 -8.84)" fill="url(#linear-gradient-2)"/>
      </g>
      <path id="Path_130" data-name="Path 130" d="M55.094,24.523c-3.532-2.355-7.192-6.715-10.343-11.871a1.894,1.894,0,0,0-1.4-2.482c-.7-1.4-1.846,2.164-1.846,2.164l-2.037,2.45c-2.737,4.074-5.665,7.351-8.179,9.006-9.579,7.67-20.081,7.161-19.795,9.42.032.8,2.228,1.3,6.238,1.337a29.671,29.671,0,0,0,15.912-5.442c3.469-2.323,6.524-6.365,8.815-11.011,2.482,4.424,5.442,8.243,8.243,10.088,2.769,2.45,5.983,3.628,8.688,4.933,2.96.637,5.474,1.432,7.638,1.528,4.36.127,6.842-.286,6.874-1.114C74.157,31.365,65.182,31.365,55.094,24.523Z" transform="translate(218.523 121.837)" fill="url(#linear-gradient-3)"/>
      <path id="Path_131" data-name="Path 131" d="M20.181,19.588c2.419,2.323,4.933,6.715,7.033,11.839a2.022,2.022,0,0,0,.923,2.514c.509,1.368,1.273-2.2,1.273-2.2l1.368-2.45c1.878-4.074,3.883-7.351,5.569-9.006,6.524-7.67,13.653-7.16,13.43-9.388,0-.827-1.464-1.3-4.2-1.368-2.673.1-6.747,1.273-10.82,5.442-2.355,2.355-4.392,6.365-6.015,11.011-1.655-4.424-3.628-8.243-5.569-10.088-1.878-2.45-4.074-3.628-5.888-4.933A27.1,27.1,0,0,0,12.1,9.436c-2.991-.1-4.678.286-4.678,1.146C7.228,12.714,13.37,12.714,20.181,19.588Z" transform="translate(92.945 108.822)" fill="url(#linear-gradient-4)"/>
      <path id="Path_132" data-name="Path 132" d="M28.944,19.588c2.387,2.323,4.869,6.715,7,11.839a2.055,2.055,0,0,0,.955,2.514c.509,1.368,1.3-2.2,1.3-2.2l1.368-2.45c1.846-4.074,3.787-7.351,5.537-9.006,6.524-7.67,13.653-7.16,13.43-9.388-.032-.827-1.464-1.3-4.233-1.368-2.641.1-6.715,1.273-10.788,5.442-2.355,2.355-4.455,6.365-5.983,11.011-1.687-4.424-3.723-8.243-5.6-10.088-1.909-2.45-4.074-3.628-5.951-4.933A24.176,24.176,0,0,0,20.8,9.436c-2.96-.1-4.615.286-4.615,1.146C15.991,12.714,22.1,12.714,28.944,19.588Z" transform="translate(363.06 108.822)" fill="url(#linear-gradient-5)"/>
      <path id="Path_133" data-name="Path 133" d="M26.219,41.447l14.2-17.886L26.219,5.706l-14.2,17.855Z" transform="translate(234.761 -5.706)" fill="url(#linear-gradient-6)"/>
      <path id="Path_134" data-name="Path 134" d="M69.2,28.531s-1.3-2.164-3.819-5.665c-1.75-1.464-3.023-3.628-5.633-5.187a19.854,19.854,0,0,0-3.819-2.514c-1.368-.7-2.928-1.368-4.519-2.132-1.591-.414-3.373-.923-5.283-1.273-1.814-.191-3.66-.318-5.633-.477-2.037.286-4.042.477-5.951.8-1.814.764-4.2,1.273-5.76,2.037l-3.087,1.623a27.881,27.881,0,0,1-2.1,1.878,11.579,11.579,0,0,0-1.941,2.323,7.675,7.675,0,0,0-1.782,2.578A18.43,18.43,0,0,0,17.577,34.61c.477,4.2,2.514,8.243,5.569,10.343a13.386,13.386,0,0,0,10.916,2.291,9.613,9.613,0,0,0,7.447-6.524,10.921,10.921,0,0,0-.1-4.869l-.1-.573c.191.159-.223-.35-.255-.477a8.723,8.723,0,0,0-.573-1.209,7.227,7.227,0,0,0-1.273-1.432c-2.291-1.75-5.537-2.037-7.638-.509a5.058,5.058,0,0,0-2,5.506c.8,2.323,2.1,2.546,3.373,2.96l1.687-.1a11.4,11.4,0,0,0-1.782.477c-.509-.191-1.4.032-2.164-.509a4.393,4.393,0,0,1-2.26-2c-.382-1.4-1.082-2.578-.732-4.074,0-1.5,1.337-3.5,2.45-4.487,2.45-2.323,7.383-3.087,11.361-.509A8.631,8.631,0,0,1,44.278,31.4a8.805,8.805,0,0,0,.859,1.337c.064.318.159.159.414.891l.286.891c1.05,2.164.987,4.805.636,7.415a17.09,17.09,0,0,1-3.564,7.065,14.852,14.852,0,0,1-3.437,2.641,10.061,10.061,0,0,1-1.909.891l-1.973.6A18.815,18.815,0,0,1,19.2,50.459c-5.156-3.6-7.733-9.261-8.465-14.894a25.919,25.919,0,0,1,3.246-16.39,18.459,18.459,0,0,1,2.387-3.405,16.946,16.946,0,0,1,2.991-3.055c1.273-.859,2.419-1.846,3.437-2.546l3.214-1.528a45.023,45.023,0,0,1,7.415-2.132c2.419-.35,4.774-.255,7.065-.382,2.26.318,4.519.636,6.715,1.05,1.878.764,4.01,1.5,5.792,2.2,1.75.987,3.373,2,4.837,2.928,1.4,1.05,2.578,2.387,3.787,3.437,2.291,1.973,3.6,4.774,4.869,6.365.987,2,1.559,3.66,2.132,4.742A14.209,14.209,0,0,0,69.2,28.531Z" transform="translate(187.712 7.27)" fill="url(#linear-gradient-7)"/>
      <path id="Path_135" data-name="Path 135" d="M12.61,28.531s1.337-2.164,3.851-5.665c1.719-1.464,2.991-3.628,5.569-5.187a21.207,21.207,0,0,1,3.851-2.514c1.4-.7,2.96-1.368,4.519-2.132,1.591-.414,3.373-.923,5.283-1.273,1.846-.191,3.66-.318,5.665-.477,1.973.286,4.042.477,5.919.8,1.814.764,4.169,1.273,5.76,2.037l3.087,1.623c.8.7,1.337,1.3,2.1,1.878a9.8,9.8,0,0,1,1.941,2.323,6.767,6.767,0,0,1,1.75,2.578A17.872,17.872,0,0,1,64.2,34.61c-.446,4.2-2.482,8.243-5.506,10.343a13.531,13.531,0,0,1-10.948,2.291c-3.883-.732-6.11-3.214-7.415-6.524a11.408,11.408,0,0,1,.064-4.869l.1-.573c-.159.159.191-.35.255-.477a8.719,8.719,0,0,1,.573-1.209,5.843,5.843,0,0,1,1.3-1.432c2.228-1.75,5.537-2.037,7.606-.509a5.058,5.058,0,0,1,2,5.506C51.4,39.479,50.1,39.7,48.89,40.116l-1.687-.1a10.1,10.1,0,0,1,1.719.477c.573-.191,1.432.032,2.164-.509a4.54,4.54,0,0,0,2.323-2c.382-1.4,1.05-2.578.7-4.074,0-1.5-1.337-3.5-2.482-4.487-2.387-2.323-7.351-3.087-11.3-.509A8.024,8.024,0,0,0,37.56,31.4c-.35.573-.541.891-.859,1.337a4.186,4.186,0,0,0-.446.891L36,34.514c-1.018,2.164-.987,4.805-.637,7.415A16.3,16.3,0,0,0,38.9,48.995,16.252,16.252,0,0,0,42.3,51.636a12.49,12.49,0,0,0,1.909.891l2,.6a18.915,18.915,0,0,0,16.421-2.673c5.156-3.6,7.7-9.261,8.4-14.894a25.494,25.494,0,0,0-3.214-16.39A20.029,20.029,0,0,0,65.47,15.77a19.373,19.373,0,0,0-2.991-3.055c-1.273-.859-2.387-1.846-3.437-2.546L55.8,8.641a43.626,43.626,0,0,0-7.447-2.132c-2.355-.35-4.678-.255-7.033-.382-2.26.318-4.519.636-6.651,1.05-1.941.764-4.042,1.5-5.824,2.2-1.75.987-3.342,2-4.805,2.928-1.464,1.05-2.61,2.387-3.819,3.437-2.291,1.973-3.6,4.774-4.933,6.365-.955,2-1.528,3.66-2.1,4.742A14.205,14.205,0,0,1,12.61,28.531Z" transform="translate(253.083 7.27)" fill="url(#linear-gradient-8)"/>
      <g id="Group_31" data-name="Group 31" transform="translate(191.195 18.33)">
        <path id="Path_136" data-name="Path 136" d="M29.01,54.846c-.286.6-2.228.1-5.378-1.241a40.178,40.178,0,0,1-5.187-3.437c-1.591-1.782-3.628-3.66-4.9-6.206-1.655-2.419-2.769-6.492-3.214-10.884a38.556,38.556,0,0,1,1.719-13.271A51.117,51.117,0,0,1,18.222,6.313c-2.769,4.3-4.933,11.425-5.156,18.522a31.106,31.106,0,0,0,4.806,17.726C23.218,50.581,29.838,53.286,29.01,54.846Z" transform="translate(-10.269 -6.282)" fill="url(#linear-gradient-9)"/>
      </g>
      <g id="Group_32" data-name="Group 32" transform="translate(312.945 18.33)">
        <path id="Path_137" data-name="Path 137" d="M14.165,54.846c.255.6,2.228.1,5.442-1.241a42.315,42.315,0,0,0,5.124-3.437c1.591-1.782,3.628-3.66,4.933-6.206,1.623-2.419,2.737-6.492,3.182-10.884A40.143,40.143,0,0,0,31.16,19.807,51.7,51.7,0,0,0,24.954,6.313c2.769,4.3,4.933,11.425,5.156,18.522a31.1,31.1,0,0,1-4.837,17.726C19.957,50.581,13.338,53.286,14.165,54.846Z" transform="translate(-14.095 -6.282)" fill="url(#linear-gradient-10)"/>
      </g>
      <g id="Group_33" data-name="Group 33" transform="translate(194.808 69.28)">
        <path id="Path_138" data-name="Path 138" d="M39.8,28.855a25.365,25.365,0,0,1-1.273,4.105c-3.055,5.856-9.229,9.961-15.849,11.234a21.229,21.229,0,0,1-7.924-.477c-.509,0-.764-.286-1.05-.286,1.05-.255,1.814-.732,2.832-1.018A20.607,20.607,0,0,0,33.4,36.525a13.567,13.567,0,0,0,3.6-5.6,16.671,16.671,0,0,0,.509-10.5c-1.559-4.615-5.124-8.434-9.229-9.706a12.4,12.4,0,0,0-12,2.069,10.38,10.38,0,0,0-3.851,9.961,10.191,10.191,0,0,0,5.919,7.161,8.674,8.674,0,0,0,7.638-1.05,7.008,7.008,0,0,0,2.546-5.092c.255-3.087-1.273-4.615-1.018-4.615a.579.579,0,0,1,.541.509A6.814,6.814,0,0,1,29.3,23.222a7.1,7.1,0,0,1-1.528,5.633,9.637,9.637,0,0,1-7.892,2.8A8.8,8.8,0,0,1,11.954,25.8a9.962,9.962,0,0,1,.732-11.743c2.291-3.851,6.938-6.174,12.03-6.174a15.621,15.621,0,0,1,13.048,7.924A20.686,20.686,0,0,1,39.8,28.855Z" transform="translate(-10.383 -7.883)" fill="url(#linear-gradient-11)"/>
      </g>
      <g id="Group_34" data-name="Group 34" transform="translate(297.082 69.28)">
        <path id="Path_139" data-name="Path 139" d="M13.873,28.855a22.86,22.86,0,0,0,1.337,4.105c3.023,5.856,9.165,9.961,15.817,11.234a21.187,21.187,0,0,0,7.924-.477c.477,0,.764-.286,1.018-.286-1.018-.255-1.75-.732-2.8-1.018A20.532,20.532,0,0,1,20.3,36.525a12.958,12.958,0,0,1-3.6-5.6,16.9,16.9,0,0,1-.509-10.5c1.559-4.615,5.156-8.434,9.229-9.706a12.305,12.305,0,0,1,11.966,2.069,10.4,10.4,0,0,1,3.883,9.961,10.265,10.265,0,0,1-5.919,7.161,8.674,8.674,0,0,1-7.638-1.05,6.941,6.941,0,0,1-2.578-5.092c-.223-3.087,1.3-4.615,1.018-4.615a.519.519,0,0,0-.477.509,6.311,6.311,0,0,0-1.3,3.564A7.1,7.1,0,0,0,25.9,28.855a9.707,9.707,0,0,0,7.924,2.8A8.8,8.8,0,0,0,41.751,25.8a9.968,9.968,0,0,0-.764-11.743c-2.26-3.851-6.874-6.174-12.03-6.174a15.612,15.612,0,0,0-13.016,7.924A20.7,20.7,0,0,0,13.873,28.855Z" transform="translate(-13.596 -7.883)" fill="url(#linear-gradient-12)"/>
      </g>
      <g id="Group_36" data-name="Group 36" transform="translate(129.461 24.79)">
        <g id="Group_35" data-name="Group 35">
          <path id="Path_140" data-name="Path 140" d="M119.452,67.62c-7.924,11.489-20.431,19.922-34.02,26.064-13.557,5.888-27.592,8.943-39.844,11.52-11.52,2.546-21.768,6.874-27.624,13.557A30.206,30.206,0,0,0,9.5,138.175a22.633,22.633,0,0,0,.255,6.142,6.325,6.325,0,0,0,.286,2.037,70.126,70.126,0,0,1-1.559-8.179,33.338,33.338,0,0,1,5.888-22.245C20.255,107.5,31.234,101.1,43.55,97.535c6.62-2.037,13.525-3.851,20.431-6.142.509-.255,1.018-.255,1.273-.541,3.819-1.241,7.924-2.769,11.743-4.328,1.05-.255,1.814-.732,2.832-1.018.509-.255,1.273-.509,1.814-.764a131.419,131.419,0,0,0,14.544-7.67v-.255A3.234,3.234,0,0,0,97.97,75.8a16.183,16.183,0,0,0,2.323-1.782,12.286,12.286,0,0,0,2.8-2.069,56.642,56.642,0,0,0,9.484-9.2c7.129-8.943,8.147-19.954,6.651-28.9a50.183,50.183,0,0,0-3.342-11.743,55.678,55.678,0,0,0-3.851-8.72c-1.814-3.342-3.087-5.888-3.564-6.906.764.764,2.291,3.087,4.837,6.142a42.812,42.812,0,0,1,5.378,8.179c2.037,3.342,3.564,7.415,5.347,12.03C126.867,42.033,127.09,55.877,119.452,67.62Z" transform="translate(-8.329 -6.485)" fill="url(#linear-gradient-6)"/>
        </g>
      </g>
      <g id="Group_38" data-name="Group 38" transform="translate(274.884 24.28)">
        <g id="Group_37" data-name="Group 37">
          <path id="Path_141" data-name="Path 141" d="M30.568,6.469s-1.4,2.769-3.787,7.351a50.386,50.386,0,0,0-3.819,8.752,55.106,55.106,0,0,0-3.405,11.871c-1.432,8.879-.573,19.89,6.588,28.928,7,9.006,18.3,16.2,31.093,21.8,12.857,5.6,25.682,9.134,37.935,12.73,12.38,3.755,23.359,10.12,29.088,18.617a32.671,32.671,0,0,1,6.047,22.182,57.18,57.18,0,0,1-1.655,8.115,6.022,6.022,0,0,0,.477-2.069,30.469,30.469,0,0,0,.1-6.11,31.031,31.031,0,0,0-8.37-19.317c-5.919-6.683-16.167-11.107-27.783-13.685-12.062-2.45-26.1-5.6-39.749-11.584C39.638,88,27.131,79.538,19.4,68.018c-7.861-11.648-7.511-25.4-4.583-34.657,1.655-4.678,3.214-8.815,5.378-12.093a42.184,42.184,0,0,1,5.315-8.211C28.658,8.951,30.568,6.469,30.568,6.469Z" transform="translate(-12.899 -6.469)" fill="url(#linear-gradient-14)"/>
        </g>
      </g>
      <path id="Path_142" data-name="Path 142" d="M16.917,51.264s2.1,1.4,5.919,3.437c2.2.6,4.264,1.973,7.32,2.291a19.306,19.306,0,0,0,4.551.573c1.5,0,3.214-.064,4.965-.064,1.623-.286,3.405-.668,5.315-1.114,1.719-.637,3.405-1.337,5.315-2.037,1.655-1.178,3.405-2.2,4.965-3.342,1.3-1.464,3.246-2.96,4.265-4.328L61.6,43.913c.477-1.018.668-1.782,1.082-2.673a8.629,8.629,0,0,0,.764-2.928,6.814,6.814,0,0,0,.509-3.023,18.388,18.388,0,0,0-3.246-11.9c-2.228-3.6-5.824-6.365-9.484-6.906a13.482,13.482,0,0,0-10.852,2.673,9.664,9.664,0,0,0-3.819,9.1,10.6,10.6,0,0,0,2.2,4.392l.318.446c-.255-.127.382.255.414.35a7.748,7.748,0,0,0,1.082.764,6.419,6.419,0,0,0,1.75.764c2.832.637,5.919-.6,7.1-2.832a5.094,5.094,0,0,0-.573-5.824c-1.719-1.782-3.023-1.368-4.328-1.241l-1.464.859a15.991,15.991,0,0,0,1.368-1.178c.573-.1,1.273-.668,2.164-.541a4.582,4.582,0,0,1,2.9.827c.987,1.146,2.132,1.846,2.45,3.373.637,1.3.286,3.723-.255,5.092-1.178,3.151-5.315,5.983-9.993,5.378a8.024,8.024,0,0,1-3.6-1.05,12.265,12.265,0,0,0-1.337-.8c-.191-.223-.223-.064-.764-.6l-.6-.668c-1.941-1.559-3.023-3.914-3.851-6.4a16.3,16.3,0,0,1,.159-7.924,16.365,16.365,0,0,1,1.878-3.883c.573-.573.446-.732,1.337-1.623l1.559-1.432A18.9,18.9,0,0,1,52.4,9.8c6.206,1.018,10.948,4.965,14.066,9.706a25.645,25.645,0,0,1,4.2,16.2A16.781,16.781,0,0,1,70,39.807a16.969,16.969,0,0,1-1.337,4.01c-.732,1.368-1.368,2.705-2,3.819l-2.228,2.8a40.136,40.136,0,0,1-5.76,5.124c-2,1.368-4.137,2.291-6.174,3.437-2.164.668-4.328,1.4-6.46,1.973-2,.127-4.3.382-6.206.509-2-.127-3.883-.35-5.6-.509-1.75-.35-3.437-1.05-4.933-1.432-2.928-.859-5.283-2.737-7.192-3.628-1.75-1.368-2.96-2.641-3.946-3.278A15.755,15.755,0,0,0,16.917,51.264Z" transform="translate(385.844 111.198)" fill="url(#linear-gradient-15)"/>
      <path id="Path_143" data-name="Path 143" d="M60.218,51.264s-2.132,1.4-5.919,3.437c-2.164.6-4.264,1.973-7.288,2.291a19.755,19.755,0,0,1-4.551.573c-1.528,0-3.246-.064-4.965-.064-1.655-.286-3.437-.668-5.315-1.114-1.782-.637-3.469-1.337-5.315-2.037-1.687-1.178-3.437-2.2-5-3.342-1.337-1.464-3.214-2.96-4.3-4.328L15.5,43.913c-.414-1.018-.636-1.782-1.05-2.673a8.631,8.631,0,0,1-.764-2.928,6.777,6.777,0,0,1-.477-3.023,18,18,0,0,1,3.214-11.9c2.26-3.6,5.824-6.365,9.484-6.906a13.54,13.54,0,0,1,10.852,2.673c3.182,2.355,4.105,5.6,3.819,9.1a10.939,10.939,0,0,1-2.164,4.392l-.35.446c.255-.127-.35.255-.414.35a7.746,7.746,0,0,1-1.082.764,6.008,6.008,0,0,1-1.75.764c-2.8.637-5.888-.6-7.065-2.832a4.939,4.939,0,0,1,.541-5.824c1.75-1.782,3.023-1.368,4.328-1.241,1.018.6,1.464.859,1.464.859s-.414-.318-1.368-1.178c-.541-.1-1.273-.668-2.132-.541a4.712,4.712,0,0,0-2.96.827c-.955,1.146-2.1,1.846-2.387,3.373-.7,1.3-.318,3.723.286,5.092,1.114,3.151,5.251,5.983,9.9,5.378a7.807,7.807,0,0,0,3.6-1.05c.573-.35.891-.541,1.337-.8.223-.223.255-.064.8-.6l.6-.668a13.45,13.45,0,0,0,3.819-6.4,16.685,16.685,0,0,0-.1-7.924,15.128,15.128,0,0,0-1.941-3.883c-.573-.573-.414-.732-1.337-1.623l-1.528-1.432A18.871,18.871,0,0,0,24.733,9.8,21.032,21.032,0,0,0,10.667,19.5,25.871,25.871,0,0,0,6.434,35.7a20.463,20.463,0,0,0,.7,4.105,15.643,15.643,0,0,0,1.337,4.01c.732,1.368,1.368,2.705,2,3.819l2.228,2.8a41.918,41.918,0,0,0,5.76,5.124C20.437,56.929,22.6,57.852,24.638,59c2.164.668,4.36,1.4,6.429,1.973,2.069.127,4.3.382,6.238.509,2-.127,3.914-.35,5.6-.509,1.75-.35,3.373-1.05,4.9-1.432,2.96-.859,5.347-2.737,7.224-3.628,1.719-1.368,2.991-2.641,3.946-3.278C59.772,51.742,60.218,51.264,60.218,51.264Z" transform="translate(60.801 111.198)" fill="url(#linear-gradient-16)"/>
      <g id="Group_39" data-name="Group 39" transform="translate(61.766 115.803)">
        <path id="Path_144" data-name="Path 144" d="M6.834,33.982c-.636-.1-.764-1.878-.509-5a34.957,34.957,0,0,1,1.432-5.347,23.444,23.444,0,0,1,3.819-5.951c1.591-2.1,4.742-4.233,8.338-5.888A35.992,35.992,0,0,1,31.689,9.381,48.261,48.261,0,0,1,44.928,10.75c-4.455-1.114-11.17-.859-17.249,1.018a27.878,27.878,0,0,0-13.653,9.2C8.712,27.808,8.362,34.236,6.834,33.982Z" transform="translate(-6.202 -9.345)" fill="url(#linear-gradient-17)"/>
      </g>
      <g id="Group_40" data-name="Group 40" transform="translate(422.55 116.605)">
        <path id="Path_145" data-name="Path 145" d="M55.67,34c.573-.064.7-1.878.509-4.965a48.191,48.191,0,0,0-1.464-5.347c-1.018-1.878-2.037-4.2-3.851-5.983-1.591-2.1-4.678-4.233-8.306-5.888A36.161,36.161,0,0,0,30.784,9.4a48.645,48.645,0,0,0-13.207,1.368C22,9.655,28.683,9.91,34.762,11.787a27.627,27.627,0,0,1,13.685,9.2C53.7,27.827,54.111,34.255,55.67,34Z" transform="translate(-17.539 -9.37)" fill="url(#linear-gradient-18)"/>
      </g>
      <g id="Group_41" data-name="Group 41" transform="translate(237.357 47.831)">
        <path id="Path_146" data-name="Path 146" d="M11.8,55.8c.255.573,2.2.064,5.41-1.273a42.319,42.319,0,0,0,5.124-3.437,27.514,27.514,0,0,0,4.933-6.206C28.885,42.47,30,38.4,30.476,34a40.376,40.376,0,0,0-1.719-13.271A51.124,51.124,0,0,0,22.552,7.24c2.8,4.328,4.933,11.425,5.156,18.522A30.8,30.8,0,0,1,22.9,43.52C17.556,51.54,10.936,54.245,11.8,55.8Z" transform="translate(-11.72 -7.209)" fill="url(#linear-gradient-10)"/>
      </g>
      <g id="Group_42" data-name="Group 42" transform="translate(267.108 47.831)">
        <path id="Path_147" data-name="Path 147" d="M31.384,55.8c-.286.573-2.228.064-5.41-1.273a37.871,37.871,0,0,1-5.124-3.437,25.854,25.854,0,0,1-4.933-6.206C14.263,42.47,13.149,38.4,12.7,34a40.376,40.376,0,0,1,1.719-13.271A51.8,51.8,0,0,1,20.6,7.24c-2.769,4.328-4.9,11.425-5.124,18.522A31.046,31.046,0,0,0,20.278,43.52C25.56,51.54,32.212,54.245,31.384,55.8Z" transform="translate(-12.654 -7.209)" fill="url(#linear-gradient-20)"/>
      </g>
      <g id="Group_44" data-name="Group 44" transform="translate(56.956 137.989)">
        <g id="Group_43" data-name="Group 43">
          <path id="Path_148" data-name="Path 148" d="M44.781,58.606c13.844,1.591,28.451-2.26,42.04-8.4,13.366-6.333,24.919-14.862,34.943-22.4,9.484-7,19.508-11.871,28.356-11.871A30.239,30.239,0,0,1,170.3,22.39a20.643,20.643,0,0,1,4.455,4.264,6.257,6.257,0,0,1,1.368,1.528,57.9,57.9,0,0,0-5.156-6.556,33.223,33.223,0,0,0-20.59-10.248c-10.216-1.114-22.277,2.928-33.034,9.8-5.951,3.692-11.839,7.67-18.108,11.361-.541.223-.859.6-1.273.6-3.469,2.069-7.32,4.105-11.011,5.983-.859.6-1.719.827-2.578,1.432-.573.223-1.241.636-1.782.891A133.145,133.145,0,0,1,67.249,47.34l-.223-.191a3.364,3.364,0,0,1-1.941.7,16.646,16.646,0,0,1-2.9.573,10.463,10.463,0,0,1-3.342.7,53.984,53.984,0,0,1-13.175,1.114c-11.457-.509-20.4-7.033-26.1-14.1a48.3,48.3,0,0,1-6.683-10.216A57.956,57.956,0,0,1,8.883,17.3c-1.3-3.5-2.419-6.174-2.832-7.256.1,1.146.8,3.787,1.4,7.7a46.153,46.153,0,0,0,2.61,9.452c1.178,3.723,3.246,7.574,5.537,11.966C20.658,47.34,30.906,56.633,44.781,58.606Z" transform="translate(-6.051 -10.042)" fill="url(#linear-gradient-21)"/>
        </g>
      </g>
      <g id="Group_46" data-name="Group 46" transform="translate(296.244 137.989)">
        <g id="Group_45" data-name="Group 45">
          <path id="Path_149" data-name="Path 149" d="M144.942,58.606c-13.844,1.591-28.451-2.26-42.008-8.4C89.567,43.871,78.046,35.342,67.958,27.8,58.474,20.8,48.45,15.93,39.6,15.93a30.3,30.3,0,0,0-20.177,6.46,21.424,21.424,0,0,0-4.455,4.264,8.146,8.146,0,0,0-1.4,1.528,82.541,82.541,0,0,1,5.156-6.556A33.506,33.506,0,0,1,39.348,11.379c10.216-1.114,22.309,2.928,33.066,9.8C78.3,24.872,84.252,28.85,90.49,32.542c.573.223.891.6,1.241.6,3.5,2.069,7.351,4.105,11.011,5.983.859.6,1.75.827,2.61,1.432.573.223,1.241.636,1.782.891a131.4,131.4,0,0,0,15.371,5.888l.191-.191a3.364,3.364,0,0,0,1.941.7,16.865,16.865,0,0,0,2.864.573,11.028,11.028,0,0,0,3.437.7,53.348,53.348,0,0,0,13.144,1.114c11.425-.509,20.368-7.033,26.064-14.1a47.09,47.09,0,0,0,6.683-10.216,57.957,57.957,0,0,0,4.01-8.624c1.3-3.5,2.387-6.174,2.832-7.256-.064,1.146-.8,3.787-1.4,7.7A46.462,46.462,0,0,1,179.63,27.2c-1.114,3.723-3.246,7.574-5.506,11.966C169.064,47.34,158.817,56.633,144.942,58.606Z" transform="translate(-13.57 -10.042)" fill="url(#linear-gradient-22)"/>
        </g>
      </g>
      <path id="Path_150" data-name="Path 150" d="M61.368,18.395a5.74,5.74,0,0,0,.668.6l.286.286c-.223-.318-.859-1.018-1.273-1.559l-.159-.35c-.541-.6-1.05-1.209-1.591-1.719a7.017,7.017,0,0,0-1.75-1.591A13.665,13.665,0,0,1,55.417,12.7l-2-.6-.382-.064A16.934,16.934,0,0,0,48.1,10.5c-5.824-.7-12.825,1.719-18.936,5.7-3.342,2.037-6.651,4.424-10.152,6.46-.446.159-.573.477-.7.446-2.069,1.209-4.233,2.387-6.3,3.437a9.743,9.743,0,0,1-1.559.891l-.923.446,1.273.859c7.606-3.755,30.392-13.557,31.411-13.844,1.018-.318,2.037-.318,3.151-.573a31.1,31.1,0,0,1,3.469.064,32.949,32.949,0,0,0,3.373.859l.127.1,1.719.764c.509.318.827.636,1.337.923a3.888,3.888,0,0,1,1.146,1.3,3.111,3.111,0,0,1,1.082,1.3,9.736,9.736,0,0,1,1.973,6.715,8.677,8.677,0,0,1-2.641,6.238A7.413,7.413,0,0,1,50.93,34.4a5.67,5.67,0,0,1-4.615-3.373,4.983,4.983,0,0,1-.159-2.769l.032-.318.127-.255.255-.732a1.779,1.779,0,0,1,.6-.8,3.873,3.873,0,0,1,4.424-.732,2.956,2.956,0,0,1,1.273,3.023,2.2,2.2,0,0,1-1.719,1.909c-.318.032-.446-.1-.636,0a1.463,1.463,0,0,0,.732.191c.255-.159.7-.064,1.241-.446a3.133,3.133,0,0,0,1.146-1.177c.191-.955.509-1.559.159-2.419a4.049,4.049,0,0,0-1.655-2.419,5.326,5.326,0,0,0-6.333.286,3.47,3.47,0,0,0-1.5,1.528l-.446.732c-.127.286-.1.159-.127.6l-.159.573a7.35,7.35,0,0,0,0,4.233,8.541,8.541,0,0,0,2.387,3.787,7.621,7.621,0,0,0,2.1,1.337,7.032,7.032,0,0,0,1.082.446l1.178.318a11.273,11.273,0,0,0,9.165-2.45,11.969,11.969,0,0,0,4.137-8.911A15.462,15.462,0,0,0,61.368,18.395Z" transform="translate(158.02 138.435)" fill="url(#linear-gradient-11)"/>
      <path id="Path_151" data-name="Path 151" d="M15.922,18.395c-.191.223-.509.446-.668.6l-.286.286c.191-.318.859-1.018,1.273-1.559l.191-.35a15.892,15.892,0,0,1,1.528-1.719,7.619,7.619,0,0,1,1.75-1.591A14.032,14.032,0,0,0,21.873,12.7l1.973-.6.446-.064A16.505,16.505,0,0,1,29.161,10.5c5.856-.7,12.825,1.719,18.936,5.7,3.342,2.037,6.683,4.424,10.184,6.46.446.159.573.477.668.446,2.069,1.209,4.233,2.387,6.3,3.437a9.994,9.994,0,0,0,1.591.891l.859.446-1.241.859c-7.574-3.755-30.392-13.557-31.411-13.844-.987-.318-2-.318-3.151-.573a30.679,30.679,0,0,0-3.437.064,33.359,33.359,0,0,1-3.405.859l-.1.1-1.75.764a14.114,14.114,0,0,1-1.337.923,3.511,3.511,0,0,0-1.114,1.3,2.709,2.709,0,0,0-1.082,1.3A9.281,9.281,0,0,0,17.7,26.351a8.677,8.677,0,0,0,2.641,6.238A7.345,7.345,0,0,0,26.329,34.4a5.766,5.766,0,0,0,4.646-3.373A5.67,5.67,0,0,0,31.1,28.26v-.318l-.127-.255-.286-.732a1.576,1.576,0,0,0-.6-.8,3.809,3.809,0,0,0-4.392-.732,2.878,2.878,0,0,0-1.241,3.023,2.116,2.116,0,0,0,1.655,1.909c.35.032.446-.1.668,0a1.711,1.711,0,0,1-.732.191c-.223-.159-.732-.064-1.273-.446a4.143,4.143,0,0,1-1.178-1.177c-.159-.955-.509-1.559-.159-2.419a4.567,4.567,0,0,1,1.687-2.419,5.326,5.326,0,0,1,6.333.286,3.311,3.311,0,0,1,1.5,1.528l.446.732c.191.286.1.159.191.6l.1.573a7.35,7.35,0,0,1,0,4.233,8.271,8.271,0,0,1-2.387,3.787,6.8,6.8,0,0,1-2.1,1.337,7.031,7.031,0,0,1-1.082.446L27,37.935a11.411,11.411,0,0,1-9.229-2.45,11.792,11.792,0,0,1-4.074-8.911A15.149,15.149,0,0,1,15.922,18.395Z" transform="translate(286.146 138.435)" fill="url(#linear-gradient-24)"/>
      <g id="Group_47" data-name="Group 47" transform="translate(0 119.345)">
        <path id="Path_152" data-name="Path 152" d="M10.616,11.617c-4.36,1.782-7.861,6.492-5.7,11.871C11,37.713,39.99,11.076,80.6,59.576,65.864,33.862,32.384,2.547,10.616,11.617Z" transform="translate(-4.261 7.823)" fill="url(#linear-gradient-25)"/>
        <path id="Path_153" data-name="Path 153" d="M7.087,12.252c1.3-2.164,4.105-3.723,6.842-2.164,7.256,4.3-9.261,18.013,14,43.6C15.107,43.79.595,23.39,7.087,12.252Z" transform="translate(33.479 -9.456)" fill="url(#linear-gradient-26)"/>
      </g>
      <g id="Group_48" data-name="Group 48" transform="translate(447.983 119.345)">
        <path id="Path_154" data-name="Path 154" d="M88.384,11.617c4.328,1.782,7.8,6.492,5.7,11.871C88,37.713,58.978,11.076,18.338,59.576,33.136,33.862,66.584,2.547,88.384,11.617Z" transform="translate(-18.338 7.823)" fill="url(#linear-gradient-27)"/>
        <path id="Path_155" data-name="Path 155" d="M39.622,12.252c-1.273-2.164-4.105-3.723-6.81-2.164-7.256,4.3,9.261,18.013-14,43.6C31.634,43.79,46.146,23.39,39.622,12.252Z" transform="translate(-3.82 -9.456)" fill="url(#linear-gradient-28)"/>
      </g>
    </g>
    <g id="Group_69" data-name="Group 69" transform="translate(160.815 274.959)">
      <g id="Group_50" data-name="Group 50" transform="translate(136.977 21.446)">
        <path id="Path_156" data-name="Path 156" d="M32.687,16.244s1.082,1.05,2.769,3.023c.6,1.114,1.75,2.164,2.26,3.883a11.846,11.846,0,0,1,.923,2.546c.223.859.414,1.878.636,2.9.032.955.1,2,.032,3.182-.1,1.114-.255,2.228-.446,3.373-.446,1.082-.8,2.228-1.241,3.278-.7.987-1.273,2.291-1.941,3.055L34.31,43.04c-.477.414-.923.6-1.337.987a10.48,10.48,0,0,1-1.559.827,4.032,4.032,0,0,1-1.782.637,10.543,10.543,0,0,1-7.256-.223,8.572,8.572,0,0,1-5.219-4.583,7.7,7.7,0,0,1,.064-6.588,5.855,5.855,0,0,1,4.742-3.5,7.04,7.04,0,0,1,2.832.732l.318.159c-.064-.159.159.159.223.159.159.159.541.382.637.509a4.259,4.259,0,0,1,.636.923,3.842,3.842,0,0,1-.668,4.455,3.014,3.014,0,0,1-3.437.477,2.431,2.431,0,0,1-1.3-2.355,9.223,9.223,0,0,0,.255-1.018,3.408,3.408,0,0,1-.477,1.018c.064.35-.191.827,0,1.337a2.935,2.935,0,0,0,.891,1.559c.732.414,1.3.987,2.228.955a4.3,4.3,0,0,0,2.9-.827A5.65,5.65,0,0,0,28.8,32.188a5.462,5.462,0,0,0-1.05-1.91l-.668-.668c-.191-.064-.1-.127-.509-.382l-.414-.255a7.859,7.859,0,0,0-4.2-1.368,9.564,9.564,0,0,0-4.551,1.146,9.23,9.23,0,0,0-1.973,1.623,3.258,3.258,0,0,0-.8.955l-.6,1.114a11.031,11.031,0,0,0-.637,9.8,12.144,12.144,0,0,0,7.511,6.779,14.894,14.894,0,0,0,9.9.35,12.251,12.251,0,0,0,2.291-.891,16,16,0,0,0,2.132-1.368c.637-.637,1.4-1.114,1.941-1.655L38.448,43.8a20.989,20.989,0,0,0,2.2-4.01,30.766,30.766,0,0,0,1.178-4.042c.127-1.273.286-2.673.318-3.978-.191-1.178-.35-2.514-.541-3.628-.35-1.146-.7-2.2-.987-3.151-.477-1.018-1.114-1.814-1.528-2.673-.859-1.559-2.291-2.673-3.023-3.692-1.018-.827-1.909-1.368-2.482-1.846Z" transform="translate(17.977 -16.244)" fill="url(#linear-gradient-29)"/>
        <path id="Path_157" data-name="Path 157" d="M21.032,16.244s-1.082,1.05-2.769,3.023c-.6,1.114-1.719,2.164-2.26,3.883a10.361,10.361,0,0,0-.923,2.546c-.223.859-.414,1.878-.636,2.9-.032.955-.1,2-.064,3.182.127,1.114.318,2.228.477,3.373.446,1.082.827,2.228,1.273,3.278.668.987,1.273,2.291,1.909,3.055l1.368,1.559c.477.414.923.6,1.337.987a10.481,10.481,0,0,0,1.559.827,3.915,3.915,0,0,0,1.75.637,10.622,10.622,0,0,0,7.288-.223,8.721,8.721,0,0,0,5.251-4.583,7.931,7.931,0,0,0-.127-6.588,5.809,5.809,0,0,0-4.71-3.5,6.906,6.906,0,0,0-2.832.732l-.318.159c.064-.159-.191.159-.255.159l-.6.509a8.629,8.629,0,0,0-.7.923,3.962,3.962,0,0,0,.764,4.455,3,3,0,0,0,3.437.477,2.576,2.576,0,0,0,1.273-2.355,4.6,4.6,0,0,1-.255-1.018,3.71,3.71,0,0,0,.446,1.018c-.032.35.223.827.032,1.337a3.115,3.115,0,0,1-.859,1.559c-.8.414-1.337.987-2.291.955a4.219,4.219,0,0,1-2.864-.827,5.706,5.706,0,0,1-1.846-6.492,5.587,5.587,0,0,1,1.082-1.91c.318-.286.414-.446.668-.668.191-.064.1-.127.446-.382l.477-.255a7.771,7.771,0,0,1,4.2-1.368,9.564,9.564,0,0,1,4.551,1.146,8.489,8.489,0,0,1,1.973,1.623,3.891,3.891,0,0,1,.764.955l.637,1.114a11.238,11.238,0,0,1,.6,9.8,12.092,12.092,0,0,1-7.479,6.779,14.9,14.9,0,0,1-9.9.35,10.452,10.452,0,0,1-2.26-.891,12.747,12.747,0,0,1-2.132-1.368c-.7-.637-1.4-1.114-1.973-1.655L15.24,43.8a20.991,20.991,0,0,1-2.2-4.01A36.392,36.392,0,0,1,11.9,35.752c-.127-1.273-.223-2.673-.318-3.978.191-1.178.35-2.514.541-3.628.286-1.146.7-2.2,1.018-3.151.446-1.018,1.05-1.814,1.5-2.673.827-1.559,2.26-2.673,3.023-3.692,1.05-.827,1.909-1.368,2.482-1.846C20.714,16.467,21.032,16.244,21.032,16.244Z" transform="translate(-11.58 -16.244)" fill="url(#linear-gradient-30)"/>
      </g>
      <path id="Path_158" data-name="Path 158" d="M23.772,22.614a24.322,24.322,0,0,1,6.556,7.511,1.234,1.234,0,0,0,.923,1.591c.446.859,1.146-1.368,1.146-1.368l1.3-1.559a20.585,20.585,0,0,1,5.187-5.7c6.11-4.9,12.73-4.551,12.539-5.983,0-.477-1.368-.8-3.914-.827A17.671,17.671,0,0,0,31.791,26.687c-1.559-2.769-3.437-5.251-5.219-6.4a21.606,21.606,0,0,0-5.537-3.119,35.938,35.938,0,0,0-4.806-.987c-2.769-.064-4.328.191-4.328.7C11.742,18.286,17.407,18.286,23.772,22.614Z" transform="translate(135.196 3.096)" fill="url(#linear-gradient-31)"/>
      <path id="Path_159" data-name="Path 159" d="M33.66,25.719c-1.528-1.432-3.119-4.233-4.487-7.479a1.263,1.263,0,0,0-.6-1.591c-.318-.891-.8,1.4-.8,1.4l-.859,1.528a20.887,20.887,0,0,1-3.533,5.728c-4.137,4.837-8.656,4.519-8.5,5.919,0,.541.923.859,2.641.859s4.3-.8,6.842-3.437a18.366,18.366,0,0,0,3.851-6.97,19.41,19.41,0,0,0,3.533,6.4,12.959,12.959,0,0,0,3.755,3.087,16.287,16.287,0,0,0,3.278,1.018c1.878.064,2.992-.191,2.992-.7C41.871,30.047,37.957,30.047,33.66,25.719Z" transform="translate(227.114 11.352)" fill="url(#linear-gradient-32)"/>
      <path id="Path_160" data-name="Path 160" d="M28.1,25.719c-1.528-1.432-3.119-4.233-4.455-7.479a1.263,1.263,0,0,0-.6-1.591c-.318-.891-.8,1.4-.8,1.4l-.859,1.528a20.886,20.886,0,0,1-3.533,5.728c-4.137,4.837-8.656,4.519-8.529,5.919.032.541.955.859,2.641.859,1.719,0,4.3-.8,6.874-3.437a17.93,17.93,0,0,0,3.819-6.97c1.05,2.769,2.323,5.219,3.564,6.4a13.758,13.758,0,0,0,3.723,3.087,16.93,16.93,0,0,0,3.278,1.018c1.909.064,2.991-.191,2.991-.7C36.313,30.047,32.43,30.047,28.1,25.719Z" transform="translate(55.824 11.352)" fill="url(#linear-gradient-33)"/>
      <path id="Path_161" data-name="Path 161" d="M21.253,18.582,12.24,29.927l9.013,11.31,9.013-11.31Z" transform="translate(145.747 77.269)" fill="url(#linear-gradient-34)"/>
      <path id="Path_162" data-name="Path 162" d="M12.6,34.154s.827,1.4,2.419,3.6c1.114.955,1.878,2.323,3.564,3.342a13.451,13.451,0,0,0,2.387,1.559c.891.414,1.909.859,2.9,1.368.987.255,2.132.541,3.373.8,1.178.127,2.323.191,3.564.318,1.273-.223,2.546-.318,3.755-.509,1.146-.477,2.641-.8,3.628-1.337l1.973-1.018c.509-.414.827-.8,1.368-1.177a9.665,9.665,0,0,0,1.241-1.464,4.838,4.838,0,0,0,1.082-1.623,11.656,11.656,0,0,0,1.464-7.7c-.35-2.673-1.559-5.219-3.533-6.492a8.42,8.42,0,0,0-6.938-1.528,6.323,6.323,0,0,0-4.678,4.137A6.878,6.878,0,0,0,30.2,29.54l.1.35.127.286a2.117,2.117,0,0,0,.382.764,5.045,5.045,0,0,0,.8.955,4.193,4.193,0,0,0,4.806.286,3.153,3.153,0,0,0,1.3-3.469,2.425,2.425,0,0,0-2.132-1.846l-1.05.064a8.21,8.21,0,0,0,1.082-.35c.35.159.891,0,1.4.35A2.688,2.688,0,0,1,38.446,28.2c.255.891.732,1.623.477,2.578a4.275,4.275,0,0,1-1.591,2.769,5.937,5.937,0,0,1-7.161.382,5.379,5.379,0,0,1-1.719-1.591l-.573-.827c-.064-.223-.127-.127-.318-.573l-.127-.541a8.589,8.589,0,0,1-.446-4.678A10.521,10.521,0,0,1,29.281,21.2a8.623,8.623,0,0,1,2.132-1.655,4.79,4.79,0,0,1,1.209-.573l1.273-.382a11.969,11.969,0,0,1,10.438,1.687,13.237,13.237,0,0,1,5.315,9.452A16.227,16.227,0,0,1,47.58,40.137a12.785,12.785,0,0,1-1.5,2.132,17.924,17.924,0,0,1-1.878,1.941c-.827.573-1.528,1.146-2.2,1.591l-2.069,1.018a26.271,26.271,0,0,1-4.71,1.3c-1.464.223-2.96.127-4.424.223-1.432-.159-2.864-.382-4.233-.636-1.209-.477-2.578-.923-3.692-1.368-1.114-.7-2.164-1.273-3.055-1.909A27.577,27.577,0,0,1,17.41,42.27c-1.464-1.241-2.26-3.023-3.119-4.073-.6-1.209-.955-2.26-1.337-2.991Z" transform="translate(156.992 61.633)" fill="url(#linear-gradient-35)"/>
      <path id="Path_163" data-name="Path 163" d="M48.5,34.154s-.859,1.4-2.482,3.6c-1.082.955-1.846,2.323-3.533,3.342A13.452,13.452,0,0,1,40.1,42.652c-.891.414-1.909.859-2.9,1.368-1.018.255-2.132.541-3.31.8-1.209.127-2.387.191-3.628.318-1.273-.223-2.578-.318-3.755-.509-1.178-.477-2.673-.8-3.66-1.337L20.908,42.27c-.509-.414-.859-.8-1.368-1.177A9.664,9.664,0,0,1,18.3,39.628a4.838,4.838,0,0,1-1.082-1.623,11.656,11.656,0,0,1-1.464-7.7,8.855,8.855,0,0,1,3.533-6.492,8.4,8.4,0,0,1,6.938-1.528A6.219,6.219,0,0,1,30.9,26.421a6.459,6.459,0,0,1-.064,3.119l-.032.35-.159.286a2.9,2.9,0,0,1-.35.764,4.3,4.3,0,0,1-.827.955,4.189,4.189,0,0,1-4.806.286,3.153,3.153,0,0,1-1.3-3.469,2.425,2.425,0,0,1,2.132-1.846l1.05.064a8.209,8.209,0,0,1-1.082-.35c-.382.159-.891,0-1.4.35A2.808,2.808,0,0,0,22.626,28.2a4.853,4.853,0,0,0-.477,2.578A4.413,4.413,0,0,0,23.74,33.55a5.927,5.927,0,0,0,7.16.382,5.555,5.555,0,0,0,1.782-1.591l.509-.827c.064-.223.159-.127.286-.573l.191-.541a8.9,8.9,0,0,0,.414-4.678,10.826,10.826,0,0,0-2.26-4.519,8.7,8.7,0,0,0-2.164-1.655,4.58,4.58,0,0,0-1.241-.573l-1.241-.382A11.855,11.855,0,0,0,16.77,20.279a13.276,13.276,0,0,0-5.346,9.452,16.413,16.413,0,0,0,2.037,10.407,18.23,18.23,0,0,0,1.528,2.132,13.148,13.148,0,0,0,1.846,1.941c.859.573,1.559,1.146,2.228,1.591L21.1,46.821a27.015,27.015,0,0,0,4.71,1.3c1.528.223,2.991.127,4.487.223,1.4-.159,2.832-.382,4.2-.636,1.241-.477,2.578-.923,3.692-1.368,1.146-.7,2.164-1.273,3.055-1.909.923-.637,1.655-1.528,2.419-2.164,1.464-1.241,2.291-3.023,3.119-4.073.6-1.209.955-2.26,1.337-2.991A8.776,8.776,0,0,1,48.5,34.154Z" transform="translate(115.529 61.633)" fill="url(#linear-gradient-36)"/>
      <g id="Group_51" data-name="Group 51" transform="translate(199.306 75.928)">
        <path id="Path_164" data-name="Path 164" d="M13.586,18.116c.191-.382,1.464-.064,3.437.764a20.521,20.521,0,0,1,3.246,2.228A17.658,17.658,0,0,1,23.42,24.99a15.862,15.862,0,0,1,2,6.938,24.038,24.038,0,0,1-1.082,8.4,32.926,32.926,0,0,1-3.914,8.593,24.712,24.712,0,0,0,3.278-11.743,20.248,20.248,0,0,0-3.023-11.266C17.246,20.821,13.045,19.1,13.586,18.116Z" transform="translate(-13.539 -17.956)" fill="url(#linear-gradient-37)"/>
      </g>
      <g id="Group_52" data-name="Group 52" transform="translate(122.126 75.928)">
        <path id="Path_165" data-name="Path 165" d="M23,18.116c-.223-.382-1.432-.064-3.469.764a26.064,26.064,0,0,0-3.246,2.228A16.6,16.6,0,0,0,13.2,24.99a15.847,15.847,0,0,0-2.037,6.938,24.021,24.021,0,0,0,1.05,8.4,34.256,34.256,0,0,0,3.914,8.593,25.08,25.08,0,0,1-3.246-11.743A19.493,19.493,0,0,1,15.94,25.913C19.281,20.821,23.514,19.1,23,18.116Z" transform="translate(-11.113 -17.956)" fill="url(#linear-gradient-38)"/>
      </g>
      <g id="Group_53" data-name="Group 53" transform="translate(190.12 51.456)">
        <path id="Path_166" data-name="Path 166" d="M13.444,27.02a27.191,27.191,0,0,1,.8-2.61A14.425,14.425,0,0,1,24.3,17.282a13.271,13.271,0,0,1,5.028.318c.35,0,.509.191.636.191-.636.127-1.146.477-1.75.637a12.953,12.953,0,0,0-10.725,3.723,8.227,8.227,0,0,0-2.228,3.532,10.52,10.52,0,0,0-.382,6.651A9.568,9.568,0,0,0,20.7,38.509a7.785,7.785,0,0,0,7.67-1.3,6.292,6.292,0,0,0-1.3-10.852,5.472,5.472,0,0,0-4.869.668,4.378,4.378,0,0,0-1.655,3.246,5.853,5.853,0,0,0,.7,2.928.361.361,0,0,1-.35-.382,3.774,3.774,0,0,1-.827-2.228,4.432,4.432,0,0,1,.987-3.564,6.153,6.153,0,0,1,5-1.782,5.644,5.644,0,0,1,5.06,3.723,6.408,6.408,0,0,1-.477,7.447,8.663,8.663,0,0,1-7.606,3.914,9.827,9.827,0,0,1-8.274-5.028A12.913,12.913,0,0,1,13.444,27.02Z" transform="translate(-13.25 -17.187)" fill="url(#linear-gradient-39)"/>
      </g>
      <g id="Group_54" data-name="Group 54" transform="translate(125.259 51.456)">
        <path id="Path_167" data-name="Path 167" d="M29.867,27.02a20.4,20.4,0,0,0-.8-2.61,14.557,14.557,0,0,0-10.057-7.129,13.229,13.229,0,0,0-5.028.318c-.35,0-.509.191-.668.191.668.127,1.178.477,1.814.637a12.96,12.96,0,0,1,10.693,3.723,8.3,8.3,0,0,1,2.26,3.532,10.5,10.5,0,0,1,.35,6.651,9.611,9.611,0,0,1-5.856,6.174,7.653,7.653,0,0,1-7.606-1.3,6.275,6.275,0,0,1,1.273-10.852,5.5,5.5,0,0,1,4.869.668,4.333,4.333,0,0,1,1.623,3.246,6.343,6.343,0,0,1-.637,2.928.358.358,0,0,0,.318-.382,4,4,0,0,0,.8-2.228,4.519,4.519,0,0,0-.955-3.564,6.182,6.182,0,0,0-5.028-1.782A5.572,5.572,0,0,0,12.2,28.962a6.306,6.306,0,0,0,.477,7.447,8.681,8.681,0,0,0,7.638,3.914,9.909,9.909,0,0,0,8.274-5.028A13.112,13.112,0,0,0,29.867,27.02Z" transform="translate(-11.212 -17.187)" fill="url(#linear-gradient-40)"/>
      </g>
      <g id="Group_56" data-name="Group 56" transform="translate(175.87 14.126)">
        <g id="Group_55" data-name="Group 55">
          <path id="Path_168" data-name="Path 168" d="M16.873,65.915C21.9,58.627,29.825,53.28,38.386,49.4c8.624-3.755,17.567-5.665,25.364-7.288,7.288-1.655,13.78-4.424,17.472-8.593A19.359,19.359,0,0,0,86.568,21.17a14.484,14.484,0,0,0-.159-3.883,4.144,4.144,0,0,0-.159-1.273,36.091,36.091,0,0,1,.987,5.156,21.041,21.041,0,0,1-3.755,14.1c-3.692,5.347-10.661,9.42-18.49,11.68-4.2,1.3-8.561,2.45-12.921,3.914-.382.127-.637.127-.827.318-2.419.827-5.028,1.782-7.479,2.769-.636.127-1.146.477-1.75.637-.35.159-.859.318-1.146.477a70.574,70.574,0,0,0-9.229,4.9v.127a1.981,1.981,0,0,0-1.178.637,8.952,8.952,0,0,0-1.4,1.114,9.91,9.91,0,0,0-1.814,1.337,34.724,34.724,0,0,0-6.015,5.792c-4.519,5.7-5.187,12.7-4.2,18.363a30.556,30.556,0,0,0,2.132,7.447,36.21,36.21,0,0,0,2.387,5.506c1.146,2.1,1.973,3.755,2.291,4.392-.477-.477-1.464-1.941-3.055-3.883a27.618,27.618,0,0,1-3.437-5.187,48.682,48.682,0,0,1-3.405-7.67A26.832,26.832,0,0,1,16.873,65.915Z" transform="translate(-12.802 -16.014)" fill="url(#linear-gradient-41)"/>
        </g>
      </g>
      <g id="Group_58" data-name="Group 58" transform="translate(83.65 14.126)">
        <g id="Group_57" data-name="Group 57">
          <path id="Path_169" data-name="Path 169" d="M73.256,105s.891-1.75,2.419-4.646a36.35,36.35,0,0,0,2.387-5.537,32.425,32.425,0,0,0,2.132-7.542c.955-5.633.382-12.634-4.169-18.331-4.424-5.7-11.584-10.311-19.7-13.844-8.147-3.533-16.262-5.792-24.059-8.115-7.829-2.323-14.8-6.365-18.458-11.775A20.462,20.462,0,0,1,9.989,21.17a47.791,47.791,0,0,1,1.018-5.156,5.816,5.816,0,0,0-.255,1.337,20.42,20.42,0,0,0-.064,3.851,19.766,19.766,0,0,0,5.283,12.284c3.787,4.2,10.279,7,17.6,8.624,7.67,1.559,16.612,3.564,25.237,7.351,8.688,3.819,16.612,9.2,21.482,16.517,5,7.383,4.774,16.1,2.96,21.927a35.868,35.868,0,0,1-3.405,7.733,31.585,31.585,0,0,1-3.405,5.219C74.465,103.4,73.256,105,73.256,105Z" transform="translate(-9.904 -16.014)" fill="url(#linear-gradient-42)"/>
        </g>
      </g>
      <path id="Path_170" data-name="Path 170" d="M42.745,22.345s-1.337-.891-3.723-2.2c-1.4-.35-2.737-1.241-4.615-1.464a19.658,19.658,0,0,0-2.9-.318c-.987,0-2.069.064-3.182,0-1.018.191-2.164.446-3.373.732-1.114.446-2.164.859-3.373,1.3-1.018.732-2.164,1.368-3.119,2.132-.859.923-2.069,1.846-2.705,2.705l-1.3,1.75c-.286.668-.446,1.146-.732,1.719a6.273,6.273,0,0,0-.477,1.846,5.051,5.051,0,0,0-.286,1.941,11.82,11.82,0,0,0,2,7.542,9.308,9.308,0,0,0,6.078,4.36,8.437,8.437,0,0,0,6.842-1.719,6.134,6.134,0,0,0,2.45-5.728,6.912,6.912,0,0,0-1.4-2.769l-.223-.318c.159.064-.191-.127-.255-.223a3.345,3.345,0,0,0-.668-.477,3.446,3.446,0,0,0-1.146-.446A4.083,4.083,0,0,0,22.155,34.5a3.111,3.111,0,0,0,.382,3.66,2.6,2.6,0,0,0,2.705.8l.955-.509-.859.668c-.382.1-.8.477-1.4.382a2.785,2.785,0,0,1-1.814-.509c-.637-.7-1.337-1.178-1.559-2.132a4.682,4.682,0,0,1,.191-3.278,5.954,5.954,0,0,1,6.3-3.373,4.44,4.44,0,0,1,2.26.636,6.66,6.66,0,0,0,.859.509c.159.159.159.032.509.414l.414.414a8.43,8.43,0,0,1,2.387,4.074,9.857,9.857,0,0,1-.1,5A7.309,7.309,0,0,1,32.179,43.7a7.086,7.086,0,0,1-.827,1.05l-.955.891a12,12,0,0,1-10.12,2.991,13.26,13.26,0,0,1-8.911-6.142A16.294,16.294,0,0,1,8.661,32.211a16.561,16.561,0,0,1,.414-2.61,9.715,9.715,0,0,1,.891-2.546c.477-.827.859-1.719,1.241-2.387l1.464-1.814a27.843,27.843,0,0,1,3.6-3.246c1.273-.859,2.641-1.432,3.914-2.164,1.368-.446,2.769-.891,4.105-1.273,1.3-.064,2.705-.223,3.946-.318,1.273.1,2.451.223,3.564.318,1.114.255,2.164.7,3.119.955a24.113,24.113,0,0,1,4.551,2.291c1.114.859,1.878,1.655,2.546,2.1A6.746,6.746,0,0,0,42.745,22.345Z" transform="translate(34.338 -6.851)" fill="url(#linear-gradient-43)"/>
      <path id="Path_171" data-name="Path 171" d="M15.311,22.345s1.4-.891,3.787-2.2c1.368-.35,2.737-1.241,4.615-1.464a19.182,19.182,0,0,1,2.9-.318c.923,0,2,.064,3.151,0,1.05.191,2.2.446,3.405.732,1.05.446,2.164.859,3.342,1.3,1.082.732,2.2,1.368,3.151,2.132.827.923,2.037,1.846,2.737,2.705l1.273,1.75A17.433,17.433,0,0,0,44.4,28.71a7.474,7.474,0,0,1,.446,1.846,4.51,4.51,0,0,1,.286,1.941,11.267,11.267,0,0,1-2,7.542,9.324,9.324,0,0,1-6.047,4.36A8.536,8.536,0,0,1,30.2,42.681a6.042,6.042,0,0,1-2.419-5.728,7.292,7.292,0,0,1,1.368-2.769l.255-.318c-.159.064.191-.127.223-.223a3.425,3.425,0,0,1,.7-.477,3.547,3.547,0,0,1,1.114-.446A4.1,4.1,0,0,1,35.933,34.5a3.16,3.16,0,0,1-.35,3.66,2.626,2.626,0,0,1-2.737.8l-.955-.509a5.7,5.7,0,0,1,.859.668c.414.1.827.477,1.4.382A2.935,2.935,0,0,0,36,38.989c.573-.7,1.337-1.178,1.559-2.132a4.682,4.682,0,0,0-.191-3.278,5.979,5.979,0,0,0-6.3-3.373,4.725,4.725,0,0,0-2.291.636,5.043,5.043,0,0,1-.859.509c-.127.159-.127.032-.477.414l-.382.414A8.285,8.285,0,0,0,24.6,36.253a10.622,10.622,0,0,0,.1,5A7.937,7.937,0,0,0,25.94,43.7a5.412,5.412,0,0,0,.827,1.05l.955.891a11.943,11.943,0,0,0,10.12,2.991,13.26,13.26,0,0,0,8.911-6.142,16.267,16.267,0,0,0,2.673-10.279,9.944,9.944,0,0,0-.414-2.61,14.988,14.988,0,0,0-.859-2.546c-.477-.827-.891-1.719-1.241-2.387l-1.432-1.814a30.293,30.293,0,0,0-3.628-3.246c-1.3-.859-2.673-1.432-3.946-2.164C36.538,17,35.17,16.553,33.8,16.171c-1.273-.064-2.673-.223-3.914-.318-1.3.1-2.482.223-3.6.318-1.082.255-2.132.7-3.055.955-1.878.509-3.373,1.719-4.615,2.291-1.114.859-1.846,1.655-2.482,2.1A7.716,7.716,0,0,1,15.311,22.345Z" transform="translate(240.403 -6.851)" fill="url(#linear-gradient-44)"/>
      <g id="Group_59" data-name="Group 59" transform="translate(268.772 29.459)">
        <path id="Path_172" data-name="Path 172" d="M39.867,16.5c.414.064.446,1.178.318,3.182a23.053,23.053,0,0,1-.891,3.342,17.634,17.634,0,0,1-2.419,3.787,15.139,15.139,0,0,1-5.283,3.755A23.559,23.559,0,0,1,24.114,32.1a28.411,28.411,0,0,1-8.37-.891,21.468,21.468,0,0,0,10.916-.637,17.712,17.712,0,0,0,8.656-5.792C38.657,20.417,38.88,16.311,39.867,16.5Z" transform="translate(-15.721 -16.496)" fill="url(#linear-gradient-45)"/>
      </g>
      <g id="Group_60" data-name="Group 60" transform="translate(39.998 28.952)">
        <path id="Path_173" data-name="Path 173" d="M8.925,16.484c-.382.032-.477,1.178-.318,3.151a19.449,19.449,0,0,0,.923,3.373,14.741,14.741,0,0,0,2.419,3.819,14.159,14.159,0,0,0,5.283,3.723A24.519,24.519,0,0,0,24.71,32.11a27.86,27.86,0,0,0,8.37-.923,21.123,21.123,0,0,1-10.916-.636,17.377,17.377,0,0,1-8.688-5.824C10.166,20.4,9.911,16.325,8.925,16.484Z" transform="translate(-8.533 -16.48)" fill="url(#linear-gradient-46)"/>
      </g>
      <g id="Group_61" data-name="Group 61" transform="translate(170.045 57.21)">
        <path id="Path_174" data-name="Path 174" d="M24.519,17.534c-.223-.382-1.432-.1-3.437.764a23.916,23.916,0,0,0-3.246,2.228,15.978,15.978,0,0,0-3.119,3.946,16.261,16.261,0,0,0-2.069,6.874,25.533,25.533,0,0,0,1.114,8.4,35.81,35.81,0,0,0,3.883,8.593A25.486,25.486,0,0,1,14.43,36.565a19.315,19.315,0,0,1,3.023-11.234C20.827,20.207,25.028,18.489,24.519,17.534Z" transform="translate(-12.619 -17.368)" fill="url(#linear-gradient-47)"/>
      </g>
      <g id="Group_62" data-name="Group 62" transform="translate(151.192 57.21)">
        <path id="Path_175" data-name="Path 175" d="M12.069,17.534c.191-.382,1.432-.1,3.437.764a26.073,26.073,0,0,1,3.246,2.228,16.754,16.754,0,0,1,3.119,3.946,15.838,15.838,0,0,1,2.037,6.874,25.518,25.518,0,0,1-1.082,8.4,35.008,35.008,0,0,1-3.914,8.593,24.384,24.384,0,0,0,3.246-11.775A19.078,19.078,0,0,0,19.1,25.331C15.761,20.207,11.56,18.489,12.069,17.534Z" transform="translate(-12.027 -17.368)" fill="url(#linear-gradient-48)"/>
      </g>
      <g id="Group_64" data-name="Group 64" transform="translate(188.533)">
        <g id="Group_63" data-name="Group 63">
          <path id="Path_176" data-name="Path 176" d="M96.453,15.789c-8.784-.987-18.044,1.464-26.605,5.347C61.382,25.145,54,30.524,47.666,35.329c-6.015,4.424-12.38,7.511-17.981,7.511A19.444,19.444,0,0,1,16.86,38.766a12.445,12.445,0,0,1-2.769-2.705,8.592,8.592,0,0,1-.891-.955,33.856,33.856,0,0,0,3.278,4.137,21.241,21.241,0,0,0,13.048,6.492c6.46.732,14.13-1.846,20.941-6.206,3.723-2.355,7.479-4.869,11.457-7.192.382-.159.573-.414.827-.414,2.2-1.3,4.646-2.61,6.97-3.787a16.3,16.3,0,0,1,1.655-.859,7.7,7.7,0,0,1,1.146-.573,79.133,79.133,0,0,1,9.706-3.755l.159.1a1.8,1.8,0,0,1,1.178-.414,13.756,13.756,0,0,1,1.878-.414,8.422,8.422,0,0,1,2.132-.414,32.829,32.829,0,0,1,8.338-.7c7.256.35,12.953,4.455,16.549,8.911a32.623,32.623,0,0,1,4.233,6.492,35.753,35.753,0,0,1,2.546,5.442c.827,2.26,1.528,3.946,1.814,4.615-.064-.7-.541-2.355-.923-4.869a31.026,31.026,0,0,0-1.623-5.983,57.487,57.487,0,0,0-3.533-7.574C111.76,22.949,105.3,17.03,96.453,15.789Z" transform="translate(-13.2 -15.57)" fill="url(#linear-gradient-49)"/>
        </g>
      </g>
      <g id="Group_66" data-name="Group 66" transform="translate(36.794)">
        <g id="Group_65" data-name="Group 65">
          <path id="Path_177" data-name="Path 177" d="M32.969,15.789c8.784-.987,18.076,1.464,26.669,5.347,8.465,4.01,15.785,9.388,22.118,14.194C87.8,39.753,94.167,42.84,99.8,42.84a19.253,19.253,0,0,0,12.762-4.074,13.753,13.753,0,0,0,2.832-2.705,10.05,10.05,0,0,0,.859-.955,40.1,40.1,0,0,1-3.246,4.137,21.247,21.247,0,0,1-13.08,6.492c-6.46.732-14.13-1.846-20.972-6.206C75.2,37.175,71.444,34.661,67.5,32.338c-.35-.159-.573-.414-.764-.414-2.26-1.3-4.646-2.61-7-3.787-.573-.382-1.114-.541-1.655-.859a9.244,9.244,0,0,0-1.114-.573,79.983,79.983,0,0,0-9.77-3.755l-.127.1a1.923,1.923,0,0,0-1.241-.414,11.827,11.827,0,0,0-1.814-.414A7.915,7.915,0,0,0,41.88,21.8a32.712,32.712,0,0,0-8.338-.7c-7.256.35-12.953,4.455-16.549,8.911a34.352,34.352,0,0,0-4.264,6.492,38.5,38.5,0,0,0-2.514,5.442c-.827,2.26-1.528,3.946-1.782,4.615.032-.7.509-2.355.891-4.869a31.36,31.36,0,0,1,1.655-5.983,52.7,52.7,0,0,1,3.469-7.574C17.693,22.949,24.185,17.03,32.969,15.789Z" transform="translate(-8.432 -15.57)" fill="url(#linear-gradient-50)"/>
        </g>
      </g>
      <path id="Path_178" data-name="Path 178" d="M14.745,28.261l-.446-.382-.191-.191c.127.223.573.668.827,1.018l.1.223c.35.382.668.732,1.018,1.082a5.579,5.579,0,0,0,1.082,1.018,14.167,14.167,0,0,1,1.368.827l1.273.382.286.064a9.268,9.268,0,0,0,3.087.955c3.66.446,8.115-1.082,12-3.628,2.1-1.273,4.233-2.769,6.429-4.074.286-.1.382-.286.477-.286,1.273-.764,2.673-1.528,3.946-2.164a10.72,10.72,0,0,1,1.018-.6l.573-.255-.827-.509c-4.806,2.323-19.286,8.561-19.922,8.752-.6.159-1.273.191-1.973.35a16.216,16.216,0,0,1-2.164-.032c-.732-.318-1.591-.35-2.164-.573l-.1-.064-1.05-.446a10.043,10.043,0,0,1-.859-.6c-.35-.159-.477-.446-.764-.827a2.86,2.86,0,0,1-.7-.8,6.106,6.106,0,0,1-1.209-4.264,5.46,5.46,0,0,1,1.687-3.946,4.316,4.316,0,0,1,3.787-1.146,3.44,3.44,0,0,1,2.928,2.132,2.945,2.945,0,0,1,.064,1.75v.191l-.064.159-.159.477a1.416,1.416,0,0,1-.382.541,2.507,2.507,0,0,1-2.769.414,1.766,1.766,0,0,1-.827-1.909,1.364,1.364,0,0,1,1.05-1.209,2.06,2.06,0,0,0,.446,0,1.457,1.457,0,0,0-.477-.127c-.159.127-.477.064-.8.35a1.418,1.418,0,0,0-.732.7c-.1.573-.35.923-.064,1.5a2.434,2.434,0,0,0,1.05,1.559,3.312,3.312,0,0,0,3.978-.191,1.92,1.92,0,0,0,.923-.955l.318-.477.1-.382.064-.35a4.354,4.354,0,0,0,0-2.705,4.912,4.912,0,0,0-1.5-2.387,4.285,4.285,0,0,0-1.337-.859l-.668-.286-.764-.223a7.23,7.23,0,0,0-5.792,1.591,7.373,7.373,0,0,0-2.61,5.633A9.252,9.252,0,0,0,14.745,28.261Z" transform="translate(178.657 -9.203)" fill="url(#linear-gradient-51)"/>
      <path id="Path_179" data-name="Path 179" d="M43.516,28.261l.414-.382.223-.191c-.159.223-.573.668-.827,1.018l-.127.223c-.318.382-.636.732-.987,1.082a6.678,6.678,0,0,1-1.082,1.018,11.6,11.6,0,0,0-1.4.827l-1.241.382L38.2,32.3a9.762,9.762,0,0,1-3.087.955c-3.723.446-8.147-1.082-12.03-3.628-2.1-1.273-4.2-2.769-6.429-4.074-.223-.1-.35-.286-.446-.286-1.273-.764-2.641-1.528-3.978-2.164-.35-.255-.668-.382-1.018-.6a2.7,2.7,0,0,1-.541-.255l.8-.509c4.806,2.323,19.317,8.561,19.89,8.752.668.159,1.3.191,2.037.35a16.784,16.784,0,0,0,2.2-.032c.668-.318,1.559-.35,2.069-.573l.127-.064,1.082-.446c.35-.191.509-.414.859-.6a1.664,1.664,0,0,0,.7-.827,1.954,1.954,0,0,0,.732-.8A6.465,6.465,0,0,0,42.4,23.233a5.588,5.588,0,0,0-1.687-3.946,4.316,4.316,0,0,0-3.787-1.146,3.446,3.446,0,0,0-2.96,2.132,3.543,3.543,0,0,0-.1,1.75v.191l.1.159.159.477a1.883,1.883,0,0,0,.382.541,2.586,2.586,0,0,0,2.832.414,1.96,1.96,0,0,0,.8-1.909,1.427,1.427,0,0,0-1.082-1.209h-.414a.926.926,0,0,1,.446-.127c.159.127.477.064.8.35a1.312,1.312,0,0,1,.732.7,2.208,2.208,0,0,1,.1,1.5,2.56,2.56,0,0,1-1.05,1.559,3.36,3.36,0,0,1-4.01-.191,2.3,2.3,0,0,1-.955-.955l-.286-.477-.064-.382-.064-.35a4.137,4.137,0,0,1,0-2.705,5.091,5.091,0,0,1,1.464-2.387,5.155,5.155,0,0,1,1.337-.859,2.693,2.693,0,0,1,.7-.286l.732-.223a7.3,7.3,0,0,1,5.824,1.591,7.592,7.592,0,0,1,2.61,5.633A9.793,9.793,0,0,1,43.516,28.261Z" transform="translate(97.439 -9.203)" fill="url(#linear-gradient-52)"/>
      <g id="Group_67" data-name="Group 67" transform="translate(284.07 0.06)">
        <path id="Path_180" data-name="Path 180" d="M60.6,46.028c2.737-1.146,4.965-4.137,3.6-7.542C60.374,29.479,41.948,46.346,16.2,15.572,25.558,31.9,46.754,51.788,60.6,46.028Z" transform="translate(-16.202 -15.572)" fill="url(#linear-gradient-53)"/>
        <path id="Path_181" data-name="Path 181" d="M29.707,42.29a3.194,3.194,0,0,1-4.36,1.368c-4.583-2.705,5.919-11.425-8.847-27.624C24.615,22.273,33.813,35.257,29.707,42.29Z" transform="translate(-7.016 -1.3)" fill="url(#linear-gradient-54)"/>
      </g>
      <g id="Group_68" data-name="Group 68" transform="translate(0 0.06)">
        <path id="Path_182" data-name="Path 182" d="M11.29,46.028c-2.769-1.146-4.965-4.137-3.6-7.542,3.819-9.006,22.213,7.861,47.991-22.914C46.329,31.9,25.1,51.788,11.29,46.028Z" transform="translate(-7.276 -15.572)" fill="url(#linear-gradient-55)"/>
        <path id="Path_183" data-name="Path 183" d="M9.077,42.29a3.14,3.14,0,0,0,4.328,1.368c4.583-2.705-5.888-11.425,8.879-27.624C14.137,22.273,4.94,35.257,9.077,42.29Z" transform="translate(16.673 -1.3)" fill="url(#linear-gradient-56)"/>
      </g>
    </g>
    <g id="Group_70" data-name="Group 70" transform="translate(0 163.225)">
      <path id="Path_184" data-name="Path 184" d="M627.174,16.437c-1.814-2.578-4.36-4.869-7.924-5.378a10.287,10.287,0,0,0-8.974,2.546l-.764.764c-.509.509-.509.8-.764,1.05a10.747,10.747,0,0,0-1.241,2.037,12.5,12.5,0,0,0,0,4.615c.477,1.241.987,2.8,2.26,3.533l.286.286c.223.509.223.255.477.509.255,0,.255.255.764.509a4.889,4.889,0,0,0,1.782.509c2.8.255,5.156-1.273,5.665-3.087a3.4,3.4,0,0,0,.223-2.769c-.223-1.018-.732-1.3-1.241-2.069a2.217,2.217,0,0,0-1.846-.255c-.477-.255-.732.255-1.241.255-.477.509-.764.509-.764.509a3.42,3.42,0,0,0,.987-.255,1.769,1.769,0,0,1,2.323.509,2.59,2.59,0,0,1,.255,3.31,3.164,3.164,0,0,1-3.819,1.559c-.541,0-.8-.255-1.018-.255,0-.286-.509-.541-.509-.541l-.286-.223-.223-.255a4.88,4.88,0,0,1-1.3-2.578,6.347,6.347,0,0,1,2.323-5.124,6.84,6.84,0,0,1,5.856-1.273,7.947,7.947,0,0,1,5.347,3.851,8.763,8.763,0,0,1,1.814,6.651c.255.509,0,1.018-.255,1.782a3.229,3.229,0,0,1-.255,1.528c-.223.541-.477,1.018-.764,1.559l-1.018,1.528c-.764.764-1.814,1.528-2.546,2.291a3.308,3.308,0,0,1-1.05.764H600.315a2.4,2.4,0,0,1-.987-.509l.477.509H32.184l.541-.509a3.257,3.257,0,0,1-1.018.509H12.23a4.7,4.7,0,0,1-1.018-.764c-.732-.764-1.75-1.528-2.546-2.291L7.647,30.249c-.255-.541-.509-1.018-.764-1.559a3.229,3.229,0,0,1-.255-1.528c-.255-.764-.509-1.273-.255-1.782a8.763,8.763,0,0,1,1.814-6.651,8.087,8.087,0,0,1,5.347-3.851,6.861,6.861,0,0,1,5.888,1.273,6.311,6.311,0,0,1,2.291,5.124,4.614,4.614,0,0,1-1.273,2.578l-.255.255-.223.223s-.541.255-.541.541c-.255,0-.509.255-1.018.255a3.149,3.149,0,0,1-3.819-1.559,2.551,2.551,0,0,1,.255-3.31,1.733,1.733,0,0,1,2.291-.509A4.015,4.015,0,0,0,18.149,20s-.255,0-.764-.509c-.509,0-.764-.509-1.273-.255a2.163,2.163,0,0,0-1.814.255c-.509.764-1.018,1.05-1.273,2.069a3.541,3.541,0,0,0,.255,2.769c.509,1.814,2.832,3.342,5.633,3.087a4.721,4.721,0,0,0,1.782-.509c.541-.255.541-.509.8-.509.223-.255.223,0,.477-.509l.255-.286c1.273-.732,1.814-2.291,2.291-3.533a14.035,14.035,0,0,0,0-4.615,10.736,10.736,0,0,0-1.273-2.037c-.255-.255-.255-.541-.732-1.05l-.8-.764a10.223,10.223,0,0,0-8.943-2.546,11.774,11.774,0,0,0-7.924,5.378A14.978,14.978,0,0,0,2.555,25.6c0,.8.286,1.559.286,2.355l.732,2.291a13.245,13.245,0,0,0,1.273,2.037L6.12,33.814a15.369,15.369,0,0,0,3.087,2.8c.732.509,1.528.764,2.291,1.273v.255H620.523v-.255c.732-.509,1.528-.764,2.291-1.273a15.266,15.266,0,0,0,3.055-2.8l1.3-1.528c.477-.509.732-1.3,1.273-2.037q.382-1.193.764-2.291c0-.8.255-1.559.255-2.355A14.978,14.978,0,0,0,627.174,16.437Z" transform="translate(6.557 -10.835)" fill="url(#linear-gradient-57)"/>
      <rect id="Rectangle_26" data-name="Rectangle 26" width="654.141" height="3.23" transform="translate(0 32.494)" fill="url(#linear-gradient-6)"/>
    </g>
    <g id="Group_71" data-name="Group 71" transform="translate(60.417 266.512)">
      <path id="Path_185" data-name="Path 185" d="M6.525,33.245a9.511,9.511,0,0,0,6.46,4.392,8.287,8.287,0,0,0,7.256-2.1l.668-.6c.382-.446.382-.637.6-.827a9.473,9.473,0,0,0,1.018-1.687,10.634,10.634,0,0,0,0-3.755,5.1,5.1,0,0,0-1.846-2.9l-.191-.223c-.255-.446-.255-.223-.446-.446-.191,0-.191-.159-.6-.35a3.767,3.767,0,0,0-1.464-.477c-2.26-.191-4.169,1.05-4.583,2.514a3.061,3.061,0,0,0-.223,2.291c.223.827.636,1.05,1.05,1.687a1.78,1.78,0,0,0,1.5.191c.382.223.6-.191.987-.191.446-.414.636-.414.636-.414a3.694,3.694,0,0,0-.827.191,1.412,1.412,0,0,1-1.878-.414,2.16,2.16,0,0,1-.191-2.705,2.561,2.561,0,0,1,3.119-1.273c.414,0,.636.191.859.191,0,.255.382.446.382.446l.191.223.255.223a3.708,3.708,0,0,1,.987,2.1,5.081,5.081,0,0,1-1.814,4.105,5.561,5.561,0,0,1-4.837,1.05A6.4,6.4,0,0,1,9.231,31.4a7.318,7.318,0,0,1-1.464-5.442c-.191-.414,0-.859.191-1.432a2.89,2.89,0,0,1,.191-1.273l.668-1.241.827-1.273c.6-.636,1.464-1.209,2.1-1.878a3.089,3.089,0,0,1,.8-.636H28.389a2.193,2.193,0,0,1,.827.446l-.382-.446h462.76l-.414.446a3.552,3.552,0,0,1,.8-.446h15.88a5.42,5.42,0,0,1,.828.636c.637.668,1.5,1.241,2.069,1.878l.859,1.273c.223.382.382.8.6,1.241a2.518,2.518,0,0,1,.223,1.273c.223.573.446,1.018.223,1.432a7.2,7.2,0,0,1-1.5,5.442,6.4,6.4,0,0,1-4.36,3.087,5.363,5.363,0,0,1-4.774-1.05,5.094,5.094,0,0,1-1.91-4.105,3.628,3.628,0,0,1,1.082-2.1l.159-.223.223-.223s.446-.191.446-.446c.191,0,.382-.191.8-.191a2.562,2.562,0,0,1,3.119,1.273,2.12,2.12,0,0,1-.159,2.705,1.455,1.455,0,0,1-1.91.414,3.8,3.8,0,0,0-.8-.191s.159,0,.6.414c.382,0,.6.414,1.05.191a1.655,1.655,0,0,0,1.432-.191,4.591,4.591,0,0,0,1.05-1.687A2.79,2.79,0,0,0,507,26.785c-.382-1.464-2.26-2.705-4.583-2.514a3.629,3.629,0,0,0-1.432.477c-.414.191-.414.35-.668.35-.191.223-.191,0-.414.446l-.191.223c-1.05.573-1.432,1.846-1.878,2.9a10.632,10.632,0,0,0,0,3.755c.445.6.668,1.241,1.018,1.687.223.191.223.382.7.827l.573.6a8.53,8.53,0,0,0,7.32,2.1,9.582,9.582,0,0,0,6.46-4.392,12.012,12.012,0,0,0,1.846-7.479c0-.668-.191-1.241-.191-1.909l-.6-1.846a14.445,14.445,0,0,0-1.05-1.687l-1.018-1.241a15.922,15.922,0,0,0-2.514-2.291c-.668-.414-1.273-.637-1.91-1.05v-.223H11.9v.223c-.6.414-1.241.636-1.846,1.05a11.707,11.707,0,0,0-2.482,2.291l-1.05,1.241a11.1,11.1,0,0,0-1.082,1.687c-.191.6-.382,1.241-.573,1.846,0,.668-.255,1.241-.255,1.909A12.281,12.281,0,0,0,6.525,33.245Z" transform="translate(10.116 -8.699)" fill="url(#linear-gradient-57)"/>
      <rect id="Rectangle_27" data-name="Rectangle 27" width="533.309" height="2.641" fill="url(#linear-gradient-60)"/>
    </g>
  </g>
</svg>
